PathFileType	4	(X/Y/Z)	19_1_32_p1_0-272_filt_butterworth.trc
DataRate	CameraRate	NumFrames	NumMarkers	Units	OrigDataRate	OrigDataStartFrame	OrigNumFrames
60.0	60.0	5	27	m	60.0	136	272
Frame#	Time	RHip			RKnee			RAnkle			RBigToe			RSmallToe			RHeel			LHip			LKnee			LAnkle			LBigToe			LSmallToe			LHeel			Neck			Head			Nose			RShoulder			RElbow			RWrist			RThumb			RIndex			RPinky			LShoulder			LElbow			LWrist			LThumb			LIndex			LPinky			
		X1	Y1	Z1	X2	Y2	Z2	X3	Y3	Z3	X4	Y4	Z4	X5	Y5	Z5	X6	Y6	Z6	X7	Y7	Z7	X8	Y8	Z8	X9	Y9	Z9	X10	Y10	Z10	X11	Y11	Z11	X12	Y12	Z12	X13	Y13	Z13	X14	Y14	Z14	X15	Y15	Z15	X16	Y16	Z16	X17	Y17	Z17	X18	Y18	Z18	X19	Y19	Z19	X20	Y20	Z20	X21	Y21	Z21	X22	Y22	Z22	X23	Y23	Z23	X24	Y24	Z24	X25	Y25	Z25	X26	Y26	Z26	X27	Y27	Z27	
136	2.2666666666666666	0.31536895016854444	0.9354335856264124	0.5335703386256627	0.30081084991604606	0.4905885237581169	0.557964997057503	0.2759612826309276	0.07959092736598944	0.5673151962323755	0.27521108564756386	0.09985530499990626	0.38874424045257405	0.3206977462856512	0.09648722902929605	0.41116846251478206	0.24244200677419037	-0.019299806949972898	0.6435532511135178	0.1121323991040947	0.9310573005047076	0.5173183501716648	0.09029836721866295	0.4995119448106459	0.5413047164073823	0.06756620865745401	0.07322050120944111	0.5383164532007432	0.1014257380905362	0.124244648881685	0.35069829428300026	0.04580177849920487	0.08674556898289666	0.40774988515429184	0.0682231194106683	0.030950194964731753	0.5698539723107309	0.1480925750415452	1.4487097731283676	0.5157850586477981	0.16093496908905253	1.7034719265844014	0.4367449499463768	0.16373346274321476	1.5652635180627346	0.3954869035079721	0.31017452000948176	1.4203202832087596	0.5284206711433743	0.3148348805681601	1.1907389589004904	0.4070886946358712	0.12031876528257307	1.258374910807579	0.3438019962471711	0.03852189296335987	1.3012834516269172	0.3235730338447915	0.03117488820404294	1.2810916601711935	0.3021399140813185	0.03894030707027646	1.2329598985459322	0.2998051987398698	0.012707034178187217	1.4043898116459537	0.5165230192543141	-0.04750872147315456	1.1627710375586613	0.5905172862765251	-0.0004915264583205467	1.2409898026239752	0.4049962606387939	0.04742905558653916	1.2970056659729092	0.30075357022378973	0.045187617725374246	1.2982110753588423	0.28592431228636594	0.0396125327323031	1.245477007479512	0.2784140318456673	
137	2.283333333333333	0.31412473183578443	0.9350471120000197	0.5359891437498561	0.2996841423354266	0.4917390990978829	0.5566110202595649	0.2759853262959296	0.07962729369988086	0.5672415985953515	0.27546588370047054	0.09899622860625858	0.38974469409316925	0.32071807571192285	0.09656110255135893	0.4109652369424673	0.24250860928286005	-0.019914393458858808	0.644357640841909	0.10987260178868272	0.9311717378956128	0.5186149200216055	0.08889994493735606	0.4998574947584378	0.5412626157570879	0.06751153662235794	0.0734090937410498	0.5384255511307298	0.10142508441201659	0.12406455258195381	0.3509785318901874	0.04560198031751361	0.08707889184412614	0.4081256563971764	0.06820722664810322	0.031428535987281014	0.5699306234616365	0.1482027750544205	1.448824843797967	0.515405086766944	0.16273648050267278	1.702680904188364	0.4369918125450494	0.16623033031611376	1.5636611391898252	0.3997840937129149	0.30956595552471344	1.419734906581455	0.530459755643424	0.3136155297721618	1.1899765006257979	0.40957104713321413	0.12103246098999261	1.2578666397806535	0.3440385376467623	0.04227269595481191	1.302368670502998	0.3175676238648393	0.03150976958676909	1.2812675539438008	0.30392802736525093	0.037492722830366684	1.2279281422485013	0.30728202373936	0.012437222608834099	1.4045360648127885	0.5160139815460211	-0.05067615706835961	1.1588920652368495	0.5812194633013544	-0.0002801913539006312	1.2406013210719427	0.4064091923956219	0.04973295185345385	1.3020041537892566	0.2970718680221875	0.04808376853887958	1.3043990711728115	0.2829804480076763	0.04158849739961794	1.2434484571798463	0.2824929562102737	
138	2.3	0.31262420751745656	0.9346806545748765	0.5386701116503455	0.2984408047369012	0.4926424833104103	0.5556168698662368	0.27598909121926435	0.07982398359918072	0.5671792001312261	0.27564186780987576	0.09811592097805906	0.3906769476794511	0.32074209296293144	0.09662177690506914	0.41078838429815684	0.24246968826638005	-0.02043197430441494	0.6451811067903394	0.10730986207680296	0.9311505788403074	0.5203414685397727	0.08746503401973307	0.5002555887083855	0.5411373955481583	0.06743866512989179	0.07367240209510015	0.53854945148765	0.10140351723077673	0.12398619304116026	0.35116522274444556	0.04541310090380592	0.08761057496227538	0.4085794332149394	0.06817376712994727	0.0320043547725413	0.5700627244815507	0.1482704629118619	1.4488960932403823	0.5151944270461626	0.16460403078710473	1.7020151787915005	0.43728975680700344	0.16890816286302285	1.5625656356414341	0.4028948180737644	0.30917835344001604	1.4197784498690267	0.5316660233955407	0.31303822964846456	1.188885376615533	0.41304255227325404	0.12180355021912878	1.2566610044276256	0.3437882552295262	0.04871307650366215	1.3044901436967304	0.3100201251592273	0.03194118894572384	1.281139897876479	0.30845734213767	0.037619541459662884	1.2243956180549285	0.31196950580804667	0.012152221764927137	1.4048812409756095	0.5147300479405215	-0.05483631660509318	1.1547519520743033	0.5700328721577508	0.0006259407692732123	1.239732620456153	0.40725741486471584	0.05323048353647579	1.3087374564265604	0.29361435625258037	0.05293134302643436	1.3111792825135098	0.2783383147700251	0.045394862264892734	1.2434115680108613	0.28432415741543615	
139	2.316666666666667	0.31079883444212714	0.9343081394791394	0.5414229543642849	0.29702165562374155	0.493483710791914	0.5548001144199776	0.2759657461383122	0.08024031981660568	0.5671357266117555	0.2756969894953503	0.09765464644961185	0.3912868316962432	0.3207689807030425	0.09667559878209088	0.4106557609765383	0.24240212153712878	-0.02075269156517323	0.6458569949320517	0.10452107114387486	0.9308989501548663	0.5224175033543794	0.08605610782539949	0.5007745410767396	0.5408941636922568	0.06736124907278766	0.07410258054041045	0.5386831930547915	0.10136880779595467	0.12396795455656881	0.35130884372720583	0.0452563641485134	0.08830517594900808	0.40904662318165846	0.06812868464170034	0.032616159930040925	0.5702140115481188	0.14828896908608227	1.4489254705178582	0.515183449644811	0.1663599016116119	1.7016378031866668	0.4375894048841033	0.17187992718273382	1.5621702573690968	0.4044784439133497	0.30901482880831566	1.4203493017993207	0.5320036698242945	0.3128993120639841	1.1874228902159754	0.41760615304587184	0.12279118871548597	1.2549998862244438	0.34264318221554674	0.057936297380683496	1.307413459178384	0.30144158910930435	0.03262157881996759	1.2803177221940567	0.3154638833874478	0.04113266807007668	1.2244089620422751	0.3102375387833648	0.011847438355597572	1.4053875281574508	0.5128248813438121	-0.059878521123367376	1.1517486875134808	0.5578916616146162	0.00256273684635744	1.2398150170014326	0.40551782066406117	0.05862715080953959	1.3163789788009965	0.2894109002043795	0.05989626819764499	1.3175375380831682	0.2716485914314428	0.05192857314617391	1.2458400141605206	0.28309777231081495	
140	2.333333333333333	0.30871900537173	0.9338452883512597	0.544146583164721	0.2953495246151199	0.4944752874910634	0.553759618284049	0.27590941471205077	0.08085181201077077	0.5670924087209149	0.27565799624948095	0.09760346840038013	0.3915834242988986	0.32081476000380604	0.09673097962806998	0.41060002601063333	0.24238091152662306	-0.020747266448359458	0.6461781590315864	0.10158685442014645	0.9303664285421287	0.5247361850718426	0.08471951555559525	0.5014925347466037	0.5404483027582312	0.06728195071794203	0.0747586146963703	0.5388292651884588	0.10132976375671177	0.12398455653825093	0.351423856233972	0.04514886694297154	0.08908938468039819	0.40945879401510615	0.06807169478023213	0.033238124835736814	0.570319744236937	0.1482550331152329	1.4488948658504825	0.5153564956295441	0.16792589227627638	1.7015561283934413	0.4380477338056057	0.17525730103067877	1.5625552601095936	0.40438208819869687	0.30898520866226986	1.4211408408479074	0.5317412969544965	0.31299931231475986	1.1857727152294693	0.4226745768017698	0.12424861996344841	1.2532309854950179	0.34065928640981025	0.06912493348066874	1.3105393208627631	0.2930858138787585	0.033950092016768005	1.2791162190845728	0.32343414223944694	0.048752382716700876	1.229082119048391	0.3012274676846678	0.011622276787727573	1.4059593195377424	0.5106673391265648	-0.06539232350592517	1.150818100565115	0.5458415046202281	0.005871356274154424	1.241852196536098	0.3994623895344462	0.06597245986031283	1.323493708696935	0.2836737281763525	0.06858372848617676	1.322524614039348	0.2634668139297579	0.06128111232769467	1.250687161350094	0.2788568557713132	
